<svg width="111" height="16" viewBox="0 0 111 16" fill="none" xmlns="http://www.w3.org/2000/svg">
<path d="M5.01688 15H7.61688V3.2H12.2569V0.999999H0.376875V3.2H5.01688V15ZM14.2081 15H16.8081V0.999999H14.2081V15ZM26.3548 0.999999H20.5948V15H23.1948V10.96H26.3548C30.0348 10.96 32.3148 9.06 32.3148 5.98C32.3148 2.88 30.0348 0.999999 26.3548 0.999999ZM26.2348 8.76H23.1948V3.2H26.2348C28.5148 3.2 29.6948 4.22 29.6948 5.98C29.6948 7.74 28.5148 8.76 26.2348 8.76ZM39.4466 15.2C43.2866 15.2 45.1066 13.28 45.1066 11.04C45.1066 5.9 36.8066 7.84 36.8066 4.86C36.8066 3.8 37.6866 2.96 39.8466 2.96C41.0666 2.96 42.4466 3.32 43.7066 4.06L44.5266 2.04C43.3066 1.24 41.5466 0.799999 39.8666 0.799999C36.0266 0.799999 34.2266 2.72 34.2266 4.98C34.2266 10.18 42.5466 8.2 42.5466 11.22C42.5466 12.26 41.6266 13.04 39.4466 13.04C37.7266 13.04 35.9466 12.4 34.8266 11.5L33.9266 13.52C35.0866 14.52 37.2666 15.2 39.4466 15.2Z" fill="#7D85DD"/>
<path d="M59.692 15.2C61.992 15.2 63.952 14.38 65.252 12.86L63.572 11.26C62.552 12.38 61.292 12.92 59.832 12.92C56.932 12.92 54.832 10.88 54.832 8C54.832 5.12 56.932 3.08 59.832 3.08C61.292 3.08 62.552 3.62 63.572 4.72L65.252 3.14C63.952 1.62 61.992 0.799999 59.712 0.799999C55.412 0.799999 52.212 3.82 52.212 8C52.212 12.18 55.412 15.2 59.692 15.2ZM77.9303 15H80.6503L74.3303 0.999999H71.7703L65.4703 15H68.1503L69.5303 11.76H76.5303L77.9303 15ZM70.4103 9.72L73.0303 3.6L75.6703 9.72H70.4103ZM94.3908 15L91.1708 10.4C93.0708 9.66 94.1508 8.1 94.1508 5.98C94.1508 2.88 91.8708 0.999999 88.1908 0.999999H82.4308V15H85.0308V10.92H88.1908C88.3708 10.92 88.5508 10.92 88.7308 10.9L91.5908 15H94.3908ZM91.5308 5.98C91.5308 7.74 90.3508 8.78 88.0708 8.78H85.0308V3.2H88.0708C90.3508 3.2 91.5308 4.22 91.5308 5.98ZM97.0597 15H103.18C107.72 15 110.82 12.2 110.82 8C110.82 3.8 107.72 0.999999 103.18 0.999999H97.0597V15ZM99.6597 12.8V3.2H103.06C106.18 3.2 108.2 5.1 108.2 8C108.2 10.9 106.18 12.8 103.06 12.8H99.6597Z" fill="#18191F"/>
</svg>
